<svg width="402" height="43" viewBox="0 0 402 43" fill="none" xmlns="http://www.w3.org/2000/svg">
<path d="M9.46559 33L0.0935938 1.496H3.39359L9.77359 23.144C10.2136 24.684 10.6096 26.268 11.0056 28.336C11.5336 26.048 11.9736 24.684 12.4576 23.144L19.3216 1.496H22.6216L29.4856 23.144C29.9696 24.728 30.4096 26.312 30.8936 28.336C31.3776 25.916 31.7736 24.376 32.1256 23.188L38.6376 1.496H41.8496L32.3896 33H29.3976L20.9496 6.248L12.5016 33H9.46559ZM48.6923 32.956H45.6563V0.923999H48.6923V15.4C50.0563 12.848 52.6523 11.132 56.2163 11.132C61.8043 11.132 64.3123 14.608 64.3123 19.976V33H61.2763V20.636C61.2763 15.664 58.9443 13.904 55.6443 13.904C51.0683 13.904 48.6923 17.292 48.6923 21.384V32.956ZM67.7776 42.284V39.776H70.1096C71.9576 39.776 73.8056 39.644 74.8616 36.784L75.7856 34.276L67.1616 11.704H70.3736L77.2376 30.272L83.9696 11.704H87.0936L77.3256 37.884C76.0936 41.228 74.0256 42.592 70.9896 42.592C69.7136 42.592 68.7456 42.504 67.7776 42.284ZM107.732 33H104.74V14.256H100.472V11.704H104.74V4.972H107.732V11.704H112V14.256H107.732V33ZM127.085 11.44V14.168H125.413C121.497 14.168 118.989 16.808 118.989 20.856V33H115.953V11.704H118.813L119.033 15.004C119.869 12.716 122.113 11.22 125.105 11.22C125.765 11.22 126.337 11.264 127.085 11.44ZM129.61 42.284V39.776H131.942C133.79 39.776 135.638 39.644 136.694 36.784L137.618 34.276L128.994 11.704H132.206L139.07 30.272L145.802 11.704H148.926L139.158 37.884C137.926 41.228 135.858 42.592 132.822 42.592C131.546 42.592 130.578 42.504 129.61 42.284Z" fill="white"/>
<path d="M174.008 33L161.952 1.496H165.34L173.744 23.408C174.404 25.124 175.02 26.84 175.724 29.04C176.384 26.752 177.176 24.552 177.66 23.364L186.02 1.496H189.276L177.308 33H174.008ZM194.363 5.852C193.131 5.852 192.119 4.84 192.119 3.608C192.119 2.376 193.131 1.32 194.363 1.32C195.595 1.32 196.651 2.376 196.651 3.608C196.651 4.84 195.595 5.852 194.363 5.852ZM192.867 33V11.704H195.903V33H192.867ZM204.874 33H202.234V0.923999H205.27V15.84C206.766 12.716 209.67 11.132 213.278 11.132C219.482 11.132 223.09 15.972 223.09 22.396C223.09 28.776 219.394 33.528 213.19 33.528C209.626 33.528 206.678 31.944 205.182 28.644L204.874 33ZM205.314 22.308C205.314 27.236 208.042 30.756 212.706 30.756C217.326 30.756 220.01 27.236 220.01 22.308C220.01 17.424 217.326 13.86 212.706 13.86C208.042 13.86 205.314 17.424 205.314 22.308ZM236.862 33.528C230.614 33.528 226.434 29.04 226.434 22.352C226.434 15.708 230.57 11.132 236.642 11.132C242.406 11.132 246.322 15.224 246.322 21.252V22.748H229.382C229.602 27.94 232.33 30.932 236.906 30.932C240.382 30.932 242.626 29.436 243.418 26.62H246.322C245.178 31.108 241.878 33.528 236.862 33.528ZM236.642 13.728C232.638 13.728 229.998 16.368 229.47 20.548H243.286C243.286 16.456 240.646 13.728 236.642 13.728ZM249.944 9.68C249.944 4.4 254.168 0.923999 260.504 0.923999C266.18 0.923999 269.92 4.092 270.404 9.372H267.192C266.84 5.808 264.42 3.784 260.46 3.784C256.016 3.784 253.112 6.072 253.112 9.636C253.112 12.408 254.74 14.168 258.04 15.004L263.452 16.324C268.38 17.512 270.932 20.328 270.932 24.596C270.932 30.052 266.708 33.528 260.196 33.528C254.08 33.528 249.944 30.316 249.548 25.168H252.804C252.98 28.468 255.884 30.624 260.196 30.624C264.816 30.624 267.764 28.38 267.764 24.772C267.764 21.956 266.18 20.108 262.792 19.316L257.468 17.996C252.54 16.808 249.944 13.992 249.944 9.68ZM280.853 33H277.861V14.256H273.593V11.704H277.861V4.972H280.853V11.704H285.121V14.256H280.853V33ZM300.206 11.44V14.168H298.534C294.618 14.168 292.11 16.808 292.11 20.856V33H289.074V11.704H291.934L292.154 15.004C292.99 12.716 295.234 11.22 298.226 11.22C298.886 11.22 299.458 11.264 300.206 11.44ZM305.738 5.852C304.506 5.852 303.494 4.84 303.494 3.608C303.494 2.376 304.506 1.32 305.738 1.32C306.97 1.32 308.026 2.376 308.026 3.608C308.026 4.84 306.97 5.852 305.738 5.852ZM304.242 33V11.704H307.278V33H304.242ZM316.645 33H313.609V11.704H316.249L316.689 15.4C318.097 12.672 320.913 11.132 323.993 11.132C329.845 11.132 332.265 14.608 332.265 19.976V33H329.229V20.636C329.229 15.664 326.985 13.904 323.465 13.904C319.109 13.904 316.645 17.072 316.645 21.868V33ZM336.864 21.736C336.864 15.928 340.604 11.132 346.852 11.132C350.548 11.132 353.364 12.848 354.728 15.972L355.036 11.704H357.676V32.34C357.676 38.676 353.628 42.812 347.38 42.812C341.924 42.812 338.096 39.732 337.26 34.584H340.296C340.956 38.016 343.596 40.04 347.424 40.04C351.78 40.04 354.684 37.092 354.684 32.648V27.588C353.232 30.58 350.284 32.34 346.632 32.34C340.56 32.34 336.864 27.544 336.864 21.736ZM339.9 21.692C339.9 26.048 342.584 29.612 347.072 29.612C351.692 29.612 354.42 26.268 354.42 21.692C354.42 17.16 351.78 13.816 347.116 13.816C342.54 13.816 339.9 17.38 339.9 21.692ZM362.208 27.016H365.112C365.112 29.48 366.96 31.02 369.952 31.02C373.252 31.02 375.188 29.612 375.188 27.324C375.188 25.564 374.308 24.552 371.8 23.936L368.148 23.012C364.452 22.088 362.648 20.152 362.648 17.248C362.648 13.508 365.772 11.132 370.348 11.132C374.836 11.132 377.74 13.596 377.872 17.556H374.924C374.836 15.092 373.12 13.64 370.26 13.64C367.268 13.64 365.596 14.916 365.596 17.204C365.596 18.832 366.74 19.976 369.072 20.548L372.724 21.472C376.42 22.396 378.092 24.112 378.092 27.192C378.092 31.02 374.836 33.528 369.996 33.528C365.2 33.528 362.208 30.976 362.208 27.016ZM391.582 25.784H388.722V24.64C388.722 21.032 391.054 19.096 393.518 17.248C395.806 15.488 397.962 13.684 397.962 10.472C397.962 6.732 395.366 3.828 391.318 3.828C387.49 3.828 384.498 6.864 384.498 10.692H381.418C381.418 5.192 385.774 0.923999 391.318 0.923999C397.346 0.923999 401.086 5.016 401.086 10.384C401.086 14.916 398.182 17.16 395.586 19.096C393.122 20.856 391.582 22.308 391.582 24.64V25.784ZM390.35 33.616C388.81 33.616 387.578 32.34 387.578 30.844C387.578 29.348 388.81 28.116 390.35 28.116C391.846 28.116 393.078 29.348 393.078 30.844C393.078 32.34 391.846 33.616 390.35 33.616Z" fill="#FF6428"/>
</svg>
